<svg xmlns="http://www.w3.org/2000/svg" id="Filled" viewBox="0 0 24 24" width="300" height="300" version="1.1" xmlns:xlink="http://www.w3.org/1999/xlink" xmlns:svgjs="http://svgjs.dev/svgjs"><g transform="matrix(1,0,0,1,0,0)"><path d="M1,6H23a1,1,0,0,0,0-2H1A1,1,0,0,0,1,6Z" fill="#f8f9faff" data-original-color="#000000ff" stroke="none"/><path d="M23,9H1a1,1,0,0,0,0,2H23a1,1,0,0,0,0-2Z" fill="#f8f9faff" data-original-color="#000000ff" stroke="none"/><path d="M23,19H1a1,1,0,0,0,0,2H23a1,1,0,0,0,0-2Z" fill="#f8f9faff" data-original-color="#000000ff" stroke="none"/><path d="M23,14H1a1,1,0,0,0,0,2H23a1,1,0,0,0,0-2Z" fill="#f8f9faff" data-original-color="#000000ff" stroke="none"/></g></svg>